<mxfile host="Electron" modified="2022-01-04T08:33:58.218Z" agent="5.0 (X11; Linux x86_64) AppleWebKit/537.36 (KHTML, like Gecko) draw.io/16.1.2 Chrome/96.0.4664.55 Electron/16.0.5 Safari/537.36" etag="YaLOf4BpjGxKVkmXPCOA" compressed="false" version="16.1.2" type="device">
  <diagram id="8A08-G1nHVfW6UGDmyAL" name="Seite-1">
    <mxGraphModel dx="1102" dy="1025" grid="1" gridSize="10" guides="1" tooltips="1" connect="1" arrows="1" fold="1" page="1" pageScale="1" pageWidth="827" pageHeight="1169" math="0" shadow="0">
      <root>
        <mxCell id="0" />
        <mxCell id="1" parent="0" />
      </root>
    </mxGraphModel>
  </diagram>
</mxfile>
